# xmcd CD database file
#
# Track frame offsets:
#	150
#	17687
#	32445
#	42802
#	58665
#	73862
#	86832
#	109197
#	129050
#	148147
#	161332
#	175760
#
# Disc length: 2512 seconds
#
# Revision: 0
# Processed by: cddbd v1.5.1PL0 Copyright (c) Steve Scherf et al.
# Submitted via: CDex 1.51
#
DISCID=9909ce0c
DTITLE=June Korneliussen Trio - Gentle Rain
DYEAR=2001
DGENRE=Jazz
TTITLE0=The Night We Called It A Day
TTITLE1=Fly Me to the Moon
TTITLE2=Let's Face the Muisc and dance
TTITLE3=How Long Has This Been Going On
TTITLE4=Gee Baby, Ain't I Good to You
TTITLE5=What a Difference a Day Made
TTITLE6=Cry Me a River
TTITLE7=Rio de Janerio Blue
TTITLE8=Gentle Rain
TTITLE9=Caught a Touch of Your Love
TTITLE10=Wave
TTITLE11=Body and Soul
EXTD=YEAR: 2001
EXTT0=
EXTT1=
EXTT2=
EXTT3=
EXTT4=
EXTT5=
EXTT6=
EXTT7=
EXTT8=
EXTT9=
EXTT10=
EXTT11=
PLAYORDER=
